<svg width="18" height="14" fill="none" xmlns="http://www.w3.org/2000/svg"><path fill-rule="evenodd" clip-rule="evenodd" d="M-.004 0h25.65v1.077H-.004V0Zm0 2.155h25.65v1.077H-.004V2.155Zm0 2.152h25.65v1.08H-.004v-1.08Zm0 2.154h25.65V7.54H-.004V6.46Zm0 2.155h25.65v1.077H-.004V8.616Zm0 2.152h25.65v1.077H-.004v-1.077Zm0 2.155h25.65V14H-.004v-1.077Z" fill="#BD3D44"/><path fill-rule="evenodd" clip-rule="evenodd" d="M-.004 1.077h25.65v1.078H-.004V1.077Zm0 2.155h25.65v1.075H-.004V3.232Zm0 2.152h25.65v1.077H-.004V5.384Zm0 2.155h25.65v1.077H-.004V7.54Zm0 2.154h25.65v1.078H-.004V9.693Zm0 2.152h25.65v1.078H-.004v-1.078Z" fill="#fff"/><path fill-rule="evenodd" clip-rule="evenodd" d="M-.003 0h10.26v7.539H-.004V0Z" fill="#192F5D"/><path fill-rule="evenodd" clip-rule="evenodd" d="M.853.323.947.62h.301l-.243.183.093.3L.853.92l-.243.183.092-.298L.457.621h.306l.09-.298Zm1.71 0 .093.298h.303l-.245.183.092.3L2.564.92l-.245.183.092-.298-.243-.183h.3l.096-.298Zm1.71 0 .094.298h.298l-.242.183.092.3L4.27.92l-.243.183.092-.298-.245-.183h.303l.095-.298Zm1.71 0 .093.298h.303l-.245.183.095.3L5.984.92l-.246.183.095-.298-.245-.183h.3l.096-.298Zm1.71 0 .094.298h.3l-.242.183.092.3L7.692.92l-.242.183.092-.298-.243-.183h.3l.093-.298Zm1.71 0 .093.298h.303l-.245.183.095.3L9.403.92l-.245.183.095-.298-.245-.183h.303l.092-.298Zm-7.694.754.093.298h.303l-.245.184.09.298-.238-.183-.245.183.087-.298-.237-.184h.3l.092-.298Zm1.71 0 .094.298h.3l-.245.184.095.298-.245-.183-.245.183.095-.298-.245-.184h.303l.092-.298Zm1.71 0 .093.298h.303l-.245.184.092.298-.243-.183-.245.183.092-.298-.242-.184h.3l.095-.298Zm1.709 0 .095.298h.3l-.245.184.095.298-.245-.183-.243.183.093-.298-.246-.184h.306l.09-.298Zm1.711 0 .092.298h.304l-.246.184.093.298-.243-.183-.245.183.092-.298-.242-.184h.3l.095-.298ZM.853 1.83l.094.304h.301l-.243.183.093.298-.245-.186-.243.186.092-.3-.245-.184h.306l.09-.3Zm1.71 0 .093.301h.303l-.245.183.092.298-.242-.186-.245.186.092-.3-.243-.184h.3l.096-.298Zm1.71 0 .094.301h.298l-.242.183.092.298-.245-.186-.243.186.092-.3-.245-.184h.303l.095-.298Zm1.71 0 .093.301h.303l-.245.183.095.298-.245-.186-.246.186.095-.3-.245-.184h.3l.096-.298Zm1.71 0 .094.301h.3l-.242.183.092.298-.245-.186-.242.186.092-.3-.243-.184h.3l.093-.298Zm1.71 0 .093.301h.303l-.245.183.095.298-.246-.186-.245.186.095-.3-.245-.184h.303l.092-.298Zm-7.694.755.093.298h.303l-.245.183.092.301-.243-.186-.245.183.093-.298-.243-.183h.3l.095-.298Zm1.71 0 .094.298h.3l-.245.183.095.301-.245-.186-.245.183.095-.298-.245-.183h.303l.092-.298Zm1.71 0 .093.298h.303l-.245.183.092.301-.243-.186-.245.183.092-.298-.242-.183h.3l.095-.298Zm1.709 0 .095.298h.3l-.242.183.092.301-.245-.186-.243.183.093-.298-.246-.183h.306l.09-.298Zm1.711 0 .092.298h.304l-.246.183.093.301-.243-.186-.245.183.092-.298-.242-.183h.3l.095-.298ZM.853 3.34l.094.298h.301l-.243.183.093.3-.245-.185-.243.183.092-.298-.245-.183h.306l.09-.298Zm1.71 0 .093.298h.303l-.245.183.092.298-.242-.183-.245.183.092-.298-.243-.183h.3l.096-.298Zm1.71 0 .094.298h.298l-.242.183.092.3-.245-.185-.243.183.092-.298-.245-.183h.303l.095-.298Zm1.71 0 .093.298h.303l-.245.183.095.3-.245-.185-.246.183.095-.298-.245-.183h.3l.096-.298Zm1.71 0 .094.298h.3l-.242.183.092.3-.245-.185-.242.183.092-.298-.243-.183h.3l.093-.298Zm1.71 0 .093.298h.303l-.245.183.095.3-.246-.185-.245.183.095-.298-.245-.183h.303l.092-.298Zm-7.694.754.093.298h.303l-.245.184.092.298-.243-.186-.245.186.093-.301-.243-.183h.3l.095-.296Zm1.71 0 .094.298h.3l-.245.184.095.298-.245-.186-.245.186.095-.301-.245-.183h.303l.092-.296Zm1.71 0 .093.298h.303l-.245.184.092.298-.243-.186-.245.186.092-.301-.242-.183h.3l.095-.296Zm1.709 0 .095.298h.3l-.242.184.092.298-.245-.186-.243.186.093-.301-.246-.183h.306l.09-.296Zm1.711 0 .092.298h.304l-.246.184.093.298-.243-.186-.245.186.092-.301-.242-.183h.3l.095-.296Zm-7.696.752.094.301h.301l-.243.183.093.296-.245-.184-.243.184.092-.298-.245-.184h.306l.09-.298Zm1.71 0 .093.301h.303l-.245.183.095.296-.245-.184-.245.184.094-.298-.245-.184h.3l.096-.298Zm1.71 0 .094.301h.298l-.242.183.092.296-.245-.184-.243.184.092-.298-.245-.184h.303l.095-.298Zm1.71 0 .093.301h.303l-.245.183.095.296-.245-.184-.246.184.095-.298-.245-.184h.3l.096-.298Zm1.71 0 .094.301h.3l-.242.183.092.296-.245-.184-.242.184.092-.298-.243-.184h.3l.093-.298Zm1.71 0 .093.301h.303l-.245.183.095.296-.246-.184-.245.184.095-.298-.245-.184h.303l.092-.298ZM1.71 5.6l.093.298h.303l-.245.183.092.301-.243-.186-.245.183.093-.298-.243-.183h.3L1.71 5.6Zm1.71 0 .094.298h.3l-.245.183.095.301-.245-.186-.245.183.095-.298-.245-.183h.303l.092-.298Zm1.71 0 .093.298h.303l-.245.183.092.301-.243-.186-.245.183.092-.298-.242-.183h.3L5.13 5.6Zm1.709 0 .095.298h.3l-.242.183.092.301-.245-.186-.243.183.093-.298-.246-.183h.306l.09-.298Zm1.711 0 .092.298h.304l-.246.183.093.301-.243-.186-.245.183.092-.298-.242-.183h.3L8.55 5.6Zm-7.696.755.094.298h.301l-.243.183.093.298-.245-.183-.243.183.092-.3-.245-.184h.306l.09-.295Zm1.71 0 .093.298h.303l-.245.183.095.298-.245-.183-.245.183.094-.3-.245-.184h.3l.096-.295Zm1.71 0 .094.298h.298l-.237.183.092.298-.245-.183-.243.183.093-.3-.246-.184h.304l.09-.295Zm1.71 0 .093.298h.303l-.245.183.095.298-.245-.183-.246.183.095-.3-.245-.184h.3l.096-.295Zm1.71 0 .094.298h.3l-.242.183.092.298-.245-.183-.242.183.092-.3-.243-.184h.3l.093-.295Zm1.71 0 .093.298h.303l-.245.183.095.298-.246-.183-.245.183.095-.3-.245-.184h.303l.092-.295Z" fill="#fff"/></svg>