<svg width="123" height="22" fill="none" xmlns="http://www.w3.org/2000/svg"><path d="M8.065 7.983h8.953V1.028h7.96v19.938h-7.96v-7.958H8.065v7.958H.1V1.028h7.965v6.955ZM45.497 16.466c2.594 0 4.094-.806 4.094-3.376V1.028h7.965V13.4c0 6.337-3.87 8.268-12.059 8.268-8.188 0-12.06-1.93-12.06-8.268V1.03h7.966V13.09c0 2.57 1.5 3.376 4.094 3.376ZM73.746 7.316l9.516 1.39c4.01.59 6.499 2.432 6.499 5.807 0 4.86-4.01 7.148-12.963 7.148-6.125 0-12.819-.838-12.846-6.701h9.6c.027.667.278 1.114.847 1.423.591.281 1.462.42 2.705.42 2.483 0 3.163-.668 3.163-1.617 0-.585-.368-1.175-1.439-1.34l-9.092-1.34c-3.893-.59-5.505-2.824-5.505-5.615 0-5.162 5.115-6.558 11.663-6.558 8.98 0 12.679 2.317 12.963 6.536h-9.265c0-.81-.48-1.318-1.216-1.594-.703-.303-1.606-.42-2.482-.42-2.376 0-3.19.586-3.19 1.424 0 .562.25.92 1.043 1.037ZM105.435 7.983h8.947V1.028h7.965v19.938h-7.965v-7.958h-8.947v7.958h-7.966V1.028h7.966v6.955Z" fill="#9D9FA2"/></svg>