<svg width="122" height="16" fill="none" xmlns="http://www.w3.org/2000/svg"><path fill-rule="evenodd" clip-rule="evenodd" d="M94.188 7.622h-4.797s-.067-2.226-2.292-2.226c-2.21 0-2.17 2.159-2.17 3.063v7.082h-5.563V6.813s.148-6.341 7.84-6.341c0 0 5.374-.675 7.665 4.708 0 0 1.609-4.708 8.135-4.708h6.138s7.519-.054 7.519 7.042h-6.031s-.175-1.754-2.319-1.754h-4.649s-3.057-.216-3.057 2.266 1.717 2.631 3.485 2.631h17.033v4.883h-18.293s-8.644.73-8.644-7.918Zm-30.97 3.062h6.942v4.856h-8.215s-7.76-.336-7.76-7.136c0-6.813 6.62-7.932 9.315-7.932h13.252v15.07h-5.748V5.813h-7.96s-2.492-.04-2.492 2.388c0 2.414 2.224 2.482 2.666 2.482ZM8.422 5.787H.676V.472h11.163s3.364.162 3.364 3.332v4.533l8.75-7.865h3.324s3.175-.027 3.175 3.48v4.48l8.845-7.96h3.512s3.216.162 3.216 3.872v5.639s0 .526.576.526h6.929v5.032h-9.475s-4.154.406-4.154-3.871V8.647s-.027-.701-.697-.027l-7.558 6.92H28.31s-3.847.135-3.847-3.844v-3.36s.068-.634-.455-.08L16.14 15.54h-3.243s-3.605.352-3.605-3.669V6.488s.093-.701-.871-.701Z" fill="#9D9FA2"/></svg>