<svg width="99" height="32" fill="none" xmlns="http://www.w3.org/2000/svg"><path fill-rule="evenodd" clip-rule="evenodd" d="M31.416 26.054c0 .775.657 1.401 1.431 1.42.777-.019 1.436-.645 1.435-1.42l.007-25.31h8.443v27.899a2.486 2.486 0 0 1-2.494 2.483h-14.77a2.496 2.496 0 0 1-2.5-2.483V.744h8.45l-.002 25.31ZM48.351.744h25.581a2.785 2.785 0 0 1 1.946.8 2.716 2.716 0 0 1 .802 1.924v27.658h-8.46V5.756c-.005-.777-.65-1.393-1.432-1.393-.788 0-1.42.6-1.432 1.371v25.393h-8.422V5.735c-.019-.77-.652-1.372-1.441-1.372a1.436 1.436 0 0 0-1.008.405 1.4 1.4 0 0 0-.422.989v25.369h-8.459V3.468a2.685 2.685 0 0 1 .802-1.924c.255-.253.558-.454.891-.591a2.783 2.783 0 0 1 1.054-.209ZM8.794 23.492h8.537a2.8 2.8 0 0 0 1.96-.802 2.7 2.7 0 0 0 .808-1.938V3.48c0-1.512-1.19-2.736-2.715-2.736H.347v30.382h8.447v-7.634ZM11.557 5.26c.07.174.105.36.102.548v12.493c.007.843-.685 1.428-1.43 1.428H8.795V4.363h1.436a1.462 1.462 0 0 1 1.019.43c.133.134.237.293.308.468Zm77.93 18.382v7.613h8.6V3.652c0-.357-.07-.71-.211-1.04-.14-.33-.346-.629-.606-.881a2.812 2.812 0 0 0-.91-.59 2.885 2.885 0 0 0-1.073-.208H80.761c-1.544 0-2.798 1.212-2.798 2.719v27.604h8.597v-7.613h2.926Zm0-17.718v13.963h-2.926V5.947c.005-.37.162-.723.435-.983s.64-.405 1.024-.404c.802 0 1.446.594 1.467 1.365Z" fill="#9D9FA2"/></svg>