<svg width="114" height="40" fill="none" xmlns="http://www.w3.org/2000/svg"><path fill-rule="evenodd" clip-rule="evenodd" d="M97.388 2.039c-.766-.767-1.835-1.15-2.821-1.15H19.159c-.973 0-2.041.424-2.78 1.15l-15.135 15.2c-1.561 1.548-1.533 4.068.027 5.615L16.42 37.96c.726.726 1.767 1.15 2.74 1.15h75.435a3.886 3.886 0 0 0 2.794-1.123l15.147-15.16c1.521-1.52 1.521-4.067 0-5.587L97.388 2.039Zm-1.069 33.784a3.5 3.5 0 0 1-2.493 1.014H19.665c-.85-.028-1.781-.384-2.438-1.041L3.874 22.457c-1.355-1.355-1.383-3.56-.027-4.916L17.2 4.176a3.617 3.617 0 0 1 2.466-1.014h74.16c.877.028 1.809.37 2.493 1.041l13.353 13.366a3.476 3.476 0 0 1 0 4.916L96.319 35.823ZM34.768 24.949c1.623 2.988-.342 6.334-3.862 6.334H20.304c-.573-.029-.846-.318-.873-.882v-2.809a.978.978 0 0 1 .291-.689.962.962 0 0 1 .691-.274h6.7c.504 0 .641-.4.45-.689-.728-.924-1.718-2.04-2.792-3.25-2.207-2.488-4.765-5.37-6.105-7.779-1.091-1.955-.191-6.195 3.316-6.195h10.166c.532 0 .928.454.955.964v2.795c0 .592-.245.84-.873.867h-5.936c-.655 0-.737.496-.505.744.944 1.143 2.045 2.36 3.162 3.592 2.272 2.51 4.609 5.092 5.817 7.27Zm7.846-3.056v8.454c0 .51-.478.936-.9.936h-4.08c-.423 0-.874-.427-.901-.909L36.706 9.68c0-.536.354-.963 1.01-.99h3.875c.573 0 1.023.453 1.023.99v7.05h4.612V9.68c0-.426.341-.963 1.037-.99h3.89c.64 0 .982.453.982.99l.027 20.667c0 .564-.45.936-.955.936h-4.08c-.37 0-.928-.454-.928-.936v-8.454h-4.585Zm45.466 9.39H75.32c-.477-.028-.954-.537-.982-.936V9.68c0-.454.505-.937 1.01-.964h12.703c.615 0 .928.345.928.937v2.823c.027.51-.422.867-.846.867H80.48v3.95h5.035c.505.056.928.455.9.882v2.864c.028.427-.34.909-.845.88h-5.09v4.682h7.628c.532 0 .928.4.928.964v2.782c0 .688-.396.908-.955.936Zm7.368-.028h-3.766a.928.928 0 0 1-.928-.88V9.652c0-.592.34-.91.955-.937h3.684c.533 0 .901.427.929.937v20.721c0 .565-.369.881-.874.881Zm-39.953-19.33a176.633 176.633 0 0 0 0 16.122c0 1.418 1.555 3.264 3.207 3.264h10.016c1.706 0 3.125-1.708 3.125-3.264.273-5.494.273-10.863 0-16.15-.041-1.39-1.693-3.18-3.125-3.18h-9.99c-1.745.055-3.178 1.9-3.233 3.207Zm9.757 14.925a29.773 29.773 0 0 1-3.126 0c-.368-.028-.736-.372-.763-1.074-.219-3.856-.314-7.71 0-11.58.055-.674.341-1.018.763-1.074 1.01-.11 2.075-.11 3.126-.027.341 0 .614.454.64 1.101a86.34 86.34 0 0 1 0 11.58c-.026.564-.19 1.046-.64 1.074Z" fill="#9D9FA2"/></svg>