<svg width="119" height="36" fill="none" xmlns="http://www.w3.org/2000/svg"><path fill-rule="evenodd" clip-rule="evenodd" d="M6 12.314a6 6 0 0 1 6-6 6 6 0 0 1 6 6h-3c0-1.651-1.35-3-3-3s-3 1.349-3 3H6Zm0 12v-3c-1.65 0-3-1.35-3-3 0-1.651 1.35-3 3-3v-3a6 6 0 0 0-6 6c0 3.318 2.682 6 6 6Zm12 0v-3c1.65 0 3-1.35 3-3 0-1.651-1.35-3-3-3v-3a6 6 0 0 1 6 6c0 3.318-2.682 6-6 6Zm0 0h-3c0 1.65-1.35 3-3 3s-3-1.35-3-3H6c0 3.318 2.682 6 6 6s6-2.682 6-6Zm19.978 3.395c-2.452 0-4.395-.683-5.828-2.048-1.433-1.385-2.15-3.357-2.15-5.917v-4.779c0-2.56.717-4.523 2.15-5.888C33.583 7.692 35.526 7 37.978 7c2.432 0 4.309.673 5.63 2.02 1.338 1.327 2.008 3.157 2.008 5.49v.17h-3.678v-.284c0-1.176-.33-2.143-.99-2.902-.641-.758-1.631-1.137-2.97-1.137-1.32 0-2.358.407-3.112 1.223-.755.815-1.132 1.925-1.132 3.328v4.893c0 1.384.377 2.494 1.132 3.328.754.816 1.791 1.223 3.112 1.223 1.339 0 2.329-.379 2.97-1.138.66-.777.99-1.744.99-2.901V19.8h3.678v.398c0 2.333-.67 4.172-2.009 5.519-1.32 1.327-3.197 1.991-5.63 1.991Zm9.903-.398V7.398h3.565v19.913H47.88Zm9.538-.455c1.113.568 2.367.853 3.763.853 1.395 0 2.65-.285 3.762-.853a6.378 6.378 0 0 0 2.631-2.475c.641-1.081.962-2.38.962-3.897v-.456c0-1.517-.32-2.816-.962-3.897a6.378 6.378 0 0 0-2.63-2.475c-1.113-.569-2.368-.853-3.763-.853-1.396 0-2.65.284-3.763.853a6.378 6.378 0 0 0-2.63 2.475c-.642 1.081-.962 2.38-.962 3.897v.456c0 1.517.32 2.816.961 3.897a6.378 6.378 0 0 0 2.631 2.475Zm6.479-3.386c-.717.702-1.622 1.053-2.716 1.053s-2-.35-2.716-1.052c-.717-.721-1.075-1.745-1.075-3.073v-.284c0-1.328.358-2.342 1.075-3.044.717-.72 1.622-1.08 2.716-1.08 1.112 0 2.018.36 2.715 1.08.717.702 1.075 1.716 1.075 3.044v.284c0 1.328-.358 2.352-1.074 3.073Zm7.039 3.84V13.202h3.508v1.85h.51c.225-.494.65-.958 1.272-1.395.622-.455 1.565-.682 2.829-.682 1.094 0 2.046.256 2.857.768a4.982 4.982 0 0 1 1.924 2.076c.453.873.679 1.897.679 3.073v8.42H80.95v-8.136c0-1.062-.264-1.858-.792-2.39-.509-.53-1.244-.796-2.206-.796-1.094 0-1.943.37-2.546 1.11-.604.72-.906 1.735-.906 3.043v7.169h-3.564Zm16.542-14.109v14.11h3.564V13.2H87.48Zm.141-2.275c.453.417 1 .625 1.641.625.66 0 1.207-.208 1.641-.625.434-.418.65-.968.65-1.65 0-.683-.216-1.233-.65-1.65-.434-.417-.98-.626-1.64-.626-.642 0-1.189.209-1.642.626-.433.417-.65.967-.65 1.65 0 .682.217 1.232.65 1.65Zm8.803 16.385V16.16h-3.564V13.2h3.564v-2.617c0-.967.283-1.735.849-2.304.584-.588 1.339-.882 2.263-.882h3.677v2.959h-2.433c-.528 0-.792.284-.792.853v1.991h3.678v2.959h-3.678v11.15h-3.564Zm10.639 2.56V33h8.826c.943 0 1.698-.294 2.263-.882.566-.569.849-1.337.849-2.304V13.201h-3.564v7.169c0 1.308-.302 2.332-.906 3.072-.603.72-1.452 1.081-2.546 1.081-.962 0-1.707-.265-2.235-.796-.509-.532-.763-1.328-.763-2.39v-8.136h-3.565v8.42c0 1.157.226 2.181.679 3.073a5.248 5.248 0 0 0 1.895 2.105c.83.493 1.792.74 2.886.74.849 0 1.546-.105 2.093-.314.547-.208.981-.474 1.302-.796.32-.322.556-.645.707-.967h.509v3.555c0 .57-.264.854-.792.854h-7.638ZM12 23.91c3.1 0 5.598-2.514 5.598-5.597 0-3.1-2.497-5.598-5.598-5.598a5.586 5.586 0 0 0-5.598 5.598A5.597 5.597 0 0 0 12 23.912Zm0-2.798a2.804 2.804 0 0 1-2.799-2.8A2.804 2.804 0 0 1 12 15.516a2.804 2.804 0 0 1 2.799 2.799A2.804 2.804 0 0 1 12 21.113Z" fill="#282828"/></svg>