<svg width="121" height="34" viewBox="0 0 121 34" fill="none" xmlns="http://www.w3.org/2000/svg">
<path d="M82.0146 9.26373H86.7738V10.1861C89.6379 9.01573 92.4205 8.45516 94.6754 10.9947C95.9598 10.4511 97.1288 9.74106 98.3962 9.44549C102.085 8.57067 104.652 10.8044 104.192 14.5704C103.732 18.3364 103.004 22.0871 102.397 25.8615H97.5733C97.8363 24.1798 98.0823 22.5491 98.364 20.9167C98.6592 19.1042 98.9731 17.29 99.27 15.4809C99.2676 15.4528 99.2729 15.4246 99.2853 15.3994C99.4669 14.0302 99.0054 12.9923 98.0841 12.729C97.0796 12.4488 95.8291 13.0093 95.3846 14.2443C94.9401 15.4792 94.7738 16.7923 94.5362 18.085C94.1239 20.509 93.7626 22.9636 93.3333 25.3893C93.2915 25.5095 93.2222 25.6182 93.1308 25.7067C93.0395 25.7952 92.9287 25.8611 92.8073 25.8989C91.3906 25.9482 89.9585 25.9142 88.4434 25.9142C88.7403 24.0354 89.0372 22.206 89.3325 20.3765C89.6124 18.6133 89.9263 16.8653 90.1808 15.1106C90.3284 14.1542 89.9009 13.2149 89.1764 12.853C88.4519 12.4912 87.5136 12.7205 86.7891 13.4289C85.8678 14.336 85.8186 15.5387 85.6201 16.6921C85.1111 19.7497 84.6326 22.8073 84.1219 25.8904H79.3151C80.2212 20.3238 81.1102 14.8354 82.0146 9.26373ZM38.6181 24.1968C38.1091 27.3615 37.6136 30.3783 37.1029 33.4444H32.2792C33.5958 25.3672 34.8972 17.341 36.2138 9.28072H41.0376C40.9884 9.6918 40.9222 10.0706 40.8899 10.4001C41.8774 10.0213 42.8327 9.49475 43.8524 9.28072C47.3103 8.5384 50.1743 10.3509 51.1482 13.7635C52.5463 18.6574 49.0867 24.5094 44.1001 25.622C42.0912 26.0433 40.2808 25.6305 38.6181 24.1968ZM46.2888 17.076C46.3058 15.2074 45.5983 13.9776 44.4225 13.5325C43.2467 13.0875 41.8876 13.5818 40.8832 14.8014C40.4152 15.3562 40.0645 16.0002 39.8522 16.6945C39.6399 17.3888 39.5704 18.1189 39.648 18.8409C39.7633 20.0605 40.274 21.0814 41.5143 21.5095C42.702 21.9223 43.72 21.4772 44.5938 20.6704C45.6076 19.741 46.2163 18.4502 46.2888 17.076ZM0.125 21.7898C1.22786 20.8674 2.29847 19.9773 3.36909 19.0719C3.84587 19.6172 4.25816 20.176 4.7519 20.6381C5.9396 21.7762 7.33598 21.7915 8.82399 21.2819C10.256 20.7876 11.1773 19.8312 11.4403 18.2973C11.61 17.2594 11.3097 16.3863 10.4036 15.8087C9.76226 15.3977 9.07001 15.0664 8.39472 14.7046C7.98412 14.4906 7.55655 14.2918 7.14425 14.0948C1.34323 11.258 2.29847 4.89813 6.48084 1.96111C9.26343 0.0161227 12.1444 0.262431 15.0424 1.64855C15.6668 1.94582 16.2437 2.3569 16.9088 2.75269C15.9705 3.92308 15.0984 5.01024 14.2416 6.06512C13.4679 5.72538 12.7434 5.3245 11.9697 5.09347C10.1423 4.53291 8.49652 5.29052 7.65666 7.00619C7.09675 8.15959 7.34277 9.19748 8.44562 9.84128C9.54848 10.4851 10.6853 10.9777 11.7881 11.5705C13.8462 12.6764 15.3512 14.2409 15.6736 16.6666C16.1826 20.3918 14.3162 23.621 10.8668 25.16C6.77607 26.9504 2.59709 25.6798 0.125 21.7898ZM19.3554 9.26373H24.1961C23.6192 12.7902 23.0763 16.2861 22.4994 19.7633C22.2686 21.1647 22.6691 21.7083 24.0638 21.8238C25.808 21.9715 26.6088 21.3142 26.8786 19.6155C27.4215 16.1858 27.9984 12.7579 28.5753 9.26373H33.399C33.0698 11.3565 32.7407 13.417 32.3946 15.4945C32.1638 16.9282 31.9161 18.3619 31.6701 19.7955C31.1271 23.0094 28.9859 25.1702 25.7927 25.6968C23.9806 25.994 22.1872 26.0093 20.4413 25.357C18.317 24.5501 17.1989 22.5559 17.5773 20.2967C18.1694 16.6649 18.7463 13.0059 19.3554 9.26373ZM78.8876 18.2803H68.5377C68.407 19.9943 69.2299 21.7083 70.4651 22.104C72.5232 22.7835 73.5922 21.3957 74.5966 19.9111C75.7334 20.3408 76.8532 20.7604 77.9713 21.18C76.5885 24.1153 72.4571 27.0319 68.3409 25.6645C65.4429 24.7081 64.0601 22.4506 63.7801 19.5153C63.339 14.9832 66.7036 10.3849 71.0997 9.39623C74.919 8.54689 78.2785 10.7552 78.8536 14.6621C79.0182 15.807 78.8876 17.0267 78.8876 18.2803ZM68.9754 15.3127H74.936C74.4422 13.4442 73.47 12.4606 72.2212 12.4454C70.8537 12.4284 69.5201 13.5988 68.9754 15.3127ZM116.178 19.9111C117.313 20.3408 118.416 20.7604 119.52 21.1647C117.56 25.1855 111.798 27.725 107.896 24.5756C105.656 22.7631 104.983 20.2899 105.427 17.555C106.036 13.6803 108.176 10.8792 111.946 9.59328C116.276 8.11033 120.26 10.8622 120.54 15.4452C120.606 16.3676 120.557 17.29 120.557 18.2803H110.102C109.922 19.8958 110.794 21.5927 112.012 22.104C113.329 22.6799 114.466 22.104 116.178 19.9111ZM116.408 15.362C116.325 13.8332 115.124 12.4742 113.823 12.4284C112.408 12.3791 110.745 13.879 110.599 15.362H116.408ZM64.3994 9.24675C63.9719 10.6974 63.5765 12.0326 63.1642 13.434C62.9874 13.4101 62.8118 13.3772 62.6383 13.3355C60.3494 12.6254 58.3744 13.7958 57.9452 16.1858C57.4192 19.1042 56.9747 22.0208 56.4962 24.9391C56.447 25.2347 56.3808 25.532 56.3265 25.8615H51.5249C52.4309 20.3068 53.32 14.8014 54.2243 9.26373H58.9988C58.9836 9.64254 58.9496 10.0061 58.9174 10.4341C60.5802 9.1805 62.4075 9.01573 64.3994 9.24675Z" fill="#9D9FA2"/>
</svg>
